<svg xmlns="http://www.w3.org/2000/svg" width="34" height="35" viewBox="0 0 34 35" fill="none">
  <path d="M12.7679 10.8888C8.87513 7.10116 11.5566 0.5 16.988 0.5C22.4193 0.5 25.1008 7.10116 21.208 10.8888L16.988 14.9947L12.7679 10.8888Z" fill="#CBEA7B"/>
  <path d="M12.7923 24.1112C8.89955 27.8988 11.581 34.5 17.0124 34.5C22.4438 34.5 25.1252 27.8988 21.2324 24.1112L17.0124 20.0053L12.7923 24.1112Z" fill="#CBEA7B"/>
  <path d="M10.3888 21.7321C6.60116 25.6249 0 22.9434 0 17.512C0 12.0807 6.60116 9.39919 10.3888 13.292L14.4947 17.512L10.3888 21.7321Z" fill="#CBEA7B"/>
  <path d="M23.6112 21.7077C27.3988 25.6005 34 22.919 34 17.4876C34 12.0562 27.3988 9.37477 23.6112 13.2676L19.5053 17.4876L23.6112 21.7077Z" fill="#CBEA7B"/>
</svg>