<svg xmlns="http://www.w3.org/2000/svg" viewBox="0 0 32 32"><path fill="#d1e6e9" d="M27,20.27c0,3.47-.68,5.46-2,10.73H18c-1-8.67-.8-8.4-1.34-8.78a1.12,1.12,0,0,0-1.77.77c-.05.45.12-1.06-.89,8H7c-1.34-5.33-2-7.28-2-10.73C5,11.71,9.75,9.33,7.86,1H24.14C22.22,9.47,27,11.58,27,20.27Z"/><path fill="#a1d8df" d="M17,11a1,1,0,0,1-2,0A1,1,0,0,1,17,11Z"/><path fill="#30acc2" d="M24.14,1a15.89,15.89,0,0,0-.4,4H8.26a15.89,15.89,0,0,0-.4-4Z"/><path fill="#68c7d3" d="M25,31H18c-1-8.67-.8-8.4-1.34-8.78a1.12,1.12,0,0,0-1.77.77c-.05.45.12-1.06-.89,8H7c-1.38-5.49-2.78-9.38-1.52-15.3,9.41,1.63,10,1.9,21,0C27.78,21.62,26.32,25.71,25,31Z"/><path fill="#a1d8df" d="M3.71,9.71C2.08,8.08,2.26,8.32,2.38,8.21A6.33,6.33,0,0,0,4,2.24L6,1.76A8.33,8.33,0,0,1,3.71,9.71Z"/><polygon fill="#a1d8df" points="2 7 1 11 5 10 2 7"/><path fill="#a1d8df" d="M28.29,9.71c1.63-1.63,1.45-1.39,1.33-1.5a6.33,6.33,0,0,1-1.65-6L26,1.76A8.33,8.33,0,0,0,28.29,9.71Z"/><polygon fill="#a1d8df" points="30 7 31 11 27 10 30 7"/></svg>