<svg xmlns="http://www.w3.org/2000/svg" width="108" height="14" viewBox="0 0 108 14" fill="none">
  <path d="M10.1099 10.1008V1.54977H12.6939V13.4498H8.97091L3.75191 4.91577H3.46291V13.4498H0.878906V1.54977H4.36391V1.56677H4.60191L9.80391 10.1008H10.1099Z" fill="white"/>
  <path d="M22.0949 3.91277H24.6789V13.4498H22.0949V12.0558H21.9759C21.3639 12.9058 20.4969 13.4498 18.7799 13.4498C14.7509 13.4498 14.6489 10.0838 14.6489 8.68977V3.91277H17.2159V8.68977C17.2159 9.43777 17.0459 11.2398 19.5279 11.2398C21.7549 11.2398 22.0949 9.81177 22.0949 8.51977V3.91277Z" fill="white"/>
  <path d="M30.1529 6.12277V9.50577V9.70977C30.1529 11.0868 30.7649 10.8998 33.2469 10.7638V13.2798C33.2469 13.2798 32.7369 13.4498 30.1529 13.4498C27.5519 13.4498 27.5519 11.3248 27.5519 9.94777V6.12277H26.2939V3.94677H27.5519V1.19277H30.1529V3.94677H33.2469V6.12277H30.1529Z" fill="white"/>
  <path d="M40.525 3.91277C41.205 3.91277 41.766 4.06577 42.208 4.16777L41.8 6.59877C41.562 6.53077 40.899 6.39477 40.083 6.39477C38.162 6.39477 37.601 7.89077 37.601 9.18277V13.4498H35.017V3.91277H37.601V5.32377H37.754C38.298 4.40577 38.876 3.91277 40.525 3.91277Z" fill="white"/>
  <path d="M46.1577 13.4498H43.5907V3.98077H46.1577V13.4498ZM46.1577 3.30077H43.5907V0.98877H46.1577V3.30077Z" fill="white"/>
  <path d="M51.7901 6.12277V9.50577V9.70977C51.7901 11.0868 52.4021 10.8998 54.8841 10.7638V13.2798C54.8841 13.2798 54.3741 13.4498 51.7901 13.4498C49.1891 13.4498 49.1891 11.3248 49.1891 9.94777V6.12277H47.9311V3.94677H49.1891V1.19277H51.7901V3.94677H54.8841V6.12277H51.7901Z" fill="white"/>
  <path d="M59.1714 13.4498H56.6044V3.98077H59.1714V13.4498ZM59.1714 3.30077H56.6044V0.98877H59.1714V3.30077Z" fill="white"/>
  <path d="M66.2487 3.74277C69.1557 3.74277 71.5697 5.28977 71.5697 8.60477C71.5697 11.9538 69.1557 13.4498 66.2487 13.4498C63.3587 13.4498 60.9447 11.9028 60.9447 8.60477C60.9447 5.32377 63.3587 3.74277 66.2487 3.74277ZM66.2487 11.1038C67.8807 11.1038 69.0367 10.3218 69.0367 8.60477C69.0367 6.83677 67.8807 6.10577 66.2487 6.10577C64.6337 6.10577 63.4777 6.80277 63.4777 8.60477C63.4777 10.3898 64.6337 11.1038 66.2487 11.1038Z" fill="white"/>
  <path d="M79.2026 3.91277C83.2316 3.91277 83.3335 7.29577 83.3335 8.68977V13.4498H80.7665V8.68977C80.7665 7.94177 80.9195 6.13977 78.4546 6.13977C76.2105 6.13977 75.8876 7.56777 75.8876 8.85977V13.4498H73.3036V3.91277H75.8876V5.32377H76.0066C76.6186 4.47377 77.4855 3.91277 79.2026 3.91277Z" fill="white"/>
  <path d="M87.8476 13.4498H85.2806V3.98077H87.8476V13.4498ZM87.8476 3.30077H85.2806V0.98877H87.8476V3.30077Z" fill="white"/>
  <path d="M94.5209 7.66977C96.6799 7.99277 99.1279 8.36677 99.1279 10.6278C99.1279 12.9908 97.4279 13.4498 94.5039 13.4498C92.3449 13.4498 90.8659 13.0588 90.1009 12.2938C89.4379 11.6308 89.4379 10.8318 89.4549 10.3388V10.1518H92.1069V10.2368C92.1069 11.0528 92.7189 11.4268 94.4359 11.4268C95.4729 11.4268 96.4589 11.2908 96.4589 10.6618C96.4589 9.94777 95.5409 9.81177 94.5039 9.69277C94.3679 9.67577 94.2319 9.65877 94.0959 9.64177C91.3589 9.28477 89.6589 8.67277 89.6589 6.76877C89.6589 5.44277 90.4239 3.86177 94.0959 3.86177C98.0399 3.86177 98.8729 5.61277 98.8729 7.07477V7.15977H96.2379V7.07477C96.2379 6.32677 95.5919 5.91877 94.0959 5.91877C92.6509 5.91877 92.3449 6.44577 92.3449 6.73477C92.3449 7.15977 92.6339 7.39777 94.2999 7.65277L94.5209 7.66977Z" fill="white"/>
  <path d="M104.179 6.12277V9.50577V9.70977C104.179 11.0868 104.791 10.8998 107.273 10.7638V13.2798C107.273 13.2798 106.763 13.4498 104.179 13.4498C101.578 13.4498 101.578 11.3248 101.578 9.94777V6.12277H100.32V3.94677H101.578V1.19277H104.179V3.94677H107.273V6.12277H104.179Z" fill="white"/>
</svg>